HIERARCHY
ROOT Hips
{
	OFFSET 0.000000 0.000000 0.000000 
	CHANNELS 6 Xposition Yposition Zposition Yrotation Zrotation Xrotation 
	JOINT Lumbar
	{
		OFFSET 0.000000 0.000000 0.000000 
		CHANNELS 3 Zrotation Xrotation Yrotation
		JOINT Neck
		{
			OFFSET 0.000000 0.445665 0.000000 
			CHANNELS 3 Zrotation Xrotation Yrotation
			End Site
			{
				OFFSET 0.000000 0.227535 0.000000 
			}
		}
		JOINT RightShoulder
		{
			OFFSET 0.019635 0.377685 0.194865 
			CHANNELS 3 Zrotation Xrotation Yrotation
			JOINT RightElbow
			{
				OFFSET 0.000000 -0.243375 0.000000 
				CHANNELS 2 Zrotation Yrotation
				JOINT RightWrist
				{
					OFFSET 0.000000 -0.264825 0.000000 
					CHANNELS 2 Zrotation Xrotation
					End Site
					{
						OFFSET 0.006600 -0.176220 0.000990 
					}
				}
			}
		}
		JOINT LeftShoulder
		{
			OFFSET 0.019635 0.377685 -0.194865 
			CHANNELS 3 Zrotation Xrotation Yrotation
			JOINT LeftElbow
			{
				OFFSET 0.000000 -0.243375 0.000000 
				CHANNELS 2 Zrotation Yrotation
				JOINT LeftWrist
				{
					OFFSET 0.000000 -0.264825 0.000000 
					CHANNELS 2 Zrotation Xrotation
					End Site
					{
						OFFSET 0.006600 -0.176220 -0.000990 
					}
				}
			}
		}
	}
	JOINT RightHip
	{
		OFFSET 0.052140 -0.069960 0.075570 
		CHANNELS 3 Zrotation Xrotation Yrotation
		JOINT RightKnee
		{
			OFFSET 0.000000 -0.402270 0.000000 
			CHANNELS 1 Zrotation
			JOINT RightAnkle
			{
				OFFSET 0.000000 -0.404085 0.000000 
				CHANNELS 3 Zrotation Xrotation Yrotation
				End Site
				{
					OFFSET 0.204105 -0.089430 0.008415 
				}
			}
		}
	}
	JOINT LeftHip
	{
		OFFSET 0.052140 -0.069960 -0.075570 
		CHANNELS 3 Zrotation Xrotation Yrotation
		JOINT LeftKnee
		{
			OFFSET 0.000000 -0.402270 0.000000 
			CHANNELS 1 Zrotation
			JOINT LeftAnkle
			{
				OFFSET 0.000000 -0.404085 0.000000 
				CHANNELS 3 Zrotation Xrotation Yrotation
				End Site
				{
					OFFSET 0.204105 -0.089430 -0.008415 
				}
			}
		}
	}
}
MOTION
Frames: 25
Frame Time: 0.02
-0.00012 0.0001 -0.00017 15.68353 -34.61961 -1.96466 56.1634 2.2326 3.54927 -7.12659 -6.88768 -0.29423 139.2165 -72.854 -85.70426 12.75039 106.71045 16.8971 1.65343 123.32642 76.06233 90.00734 8.92698 -101.9329 13.96552 -1.59503 50.95119 -1.1833 -9.48184 -19.16342 -7.70642 -4.7495 -3.20929 54.54322 0.89398 -0.03483 -24.14609 -10.04216 5.78615 3.94944
-4e-05 9e-05 -9e-05 15.78948 -34.62386 -1.97826 56.12623 2.20214 3.5353 -7.06702 -6.86409 -0.2944 138.76236 -72.8093 -86.11876 12.74464 106.69939 16.78442 1.53897 123.05548 75.97392 90.00707 8.89504 -101.84247 13.87713 -1.42939 50.93878 -1.17643 -9.44276 -19.16363 -7.71242 -4.75647 -3.21571 54.55437 0.92349 0.10939 -24.15078 -10.01601 5.7746 3.94003
3e-05 8e-05 -1e-05 15.89517 -34.62813 -1.99183 56.08916 2.17174 3.52141 -7.0076 -6.84051 -0.29456 138.30927 -72.76473 -86.53202 12.7389 106.68839 16.67198 1.42476 122.78519 75.88578 90.0068 8.86316 -101.75232 13.78888 -1.26425 50.92642 -1.16956 -9.40371 -19.16383 -7.71842 -4.76344 -3.22213 54.56551 0.95304 0.25374 -24.15546 -9.98985 5.76304 3.93062
0.00011 8e-05 6e-05 16.00081 -34.63238 -2.00539 56.0521 2.14137 3.5075 -6.94821 -6.81698 -0.29473 137.85646 -72.72017 -86.94524 12.73318 106.67738 16.55963 1.31064 122.51505 75.79763 90.00653 8.83131 -101.66218 13.70075 -1.09912 50.91404 -1.1627 -9.36475 -19.16404 -7.7244 -4.7704 -3.22853 54.57662 0.98248 0.3976 -24.16014 -9.96376 5.75152 3.92123
0.00018 7e-05 0.00014 16.10666 -34.63659 -2.01897 56.01495 2.11094 3.49348 -6.88868 -6.79348 -0.2949 137.40277 -72.67549 -87.3597 12.72744 106.66629 16.44709 1.19629 122.24433 75.70925 90.00625 8.79944 -101.57173 13.6125 -0.93346 50.9016 -1.15586 -9.32577 -19.16426 -7.73038 -4.77734 -3.23494 54.58774 1.01183 0.54114 -24.16484 -9.93771 5.74002 3.91185
0.00026 7e-05 0.00022 16.21203 -34.641 -2.03254 55.97804 2.08063 3.47986 -6.82949 -6.76972 -0.29507 136.951 -72.63114 -87.77042 12.72169 106.65548 16.33486 1.08239 121.97496 75.62161 90.00599 8.76752 -101.4822 13.52422 -0.76943 50.8894 -1.14893 -9.28657 -19.16443 -7.73641 -4.78436 -3.24136 54.59893 1.04179 0.68716 -24.16947 -9.91133 5.72834 3.90236
0.00034 6e-05 0.0003 16.31824 -34.645 -2.04611 55.94068 2.05012 3.46547 -6.76969 -6.7465 -0.29523 136.49577 -72.58618 -88.18818 12.71599 106.64414 16.22214 0.96774 121.70319 75.53254 90.0057 8.73572 -101.39099 13.43618 -0.60236 50.87673 -1.14219 -9.2479 -19.1647 -7.74233 -4.79123 -3.24775 54.60995 1.0705 0.82802 -24.17423 -9.88564 5.71704 3.89311
0.00041 6e-05 0.00038 16.42368 -34.64939 -2.05967 55.90374 2.01979 3.45179 -6.71046 -6.72279 -0.2954 136.04389 -72.54177 -88.59947 12.71022 106.63325 16.10983 0.85374 121.43361 75.44483 90.00544 8.70386 -101.30121 13.34778 -0.43798 50.86451 -1.13526 -9.20869 -19.16487 -7.74835 -4.79824 -3.25417 54.62114 1.10036 0.97363 -24.17887 -9.85932 5.70539 3.88364
0.00049 5e-05 0.00046 16.52822 -34.65422 -2.07327 55.86729 1.98964 3.43898 -6.65182 -6.69844 -0.29557 135.59523 -72.49807 -89.00294 12.70444 106.62308 15.99814 0.7406 121.16665 75.35861 90.00521 8.67171 -101.21361 13.25945 -0.27725 50.85279 -1.12813 -9.16898 -19.16494 -7.75452 -4.80541 -3.26062 54.63248 1.13169 1.12527 -24.18336 -9.83216 5.69328 3.87389
0.00056 4e-05 0.00054 16.6381 -34.6564 -2.08678 55.82797 1.95835 3.42116 -6.58947 -6.67762 -0.29573 135.1254 -72.4504 -89.4517 12.69895 106.60927 15.88326 0.62271 120.88445 75.26328 90.00479 8.64058 -101.11477 13.17226 -0.09661 50.83801 -1.12224 -9.13264 -19.16566 -7.75989 -4.81162 -3.26687 54.6428 1.15475 1.2429 -24.18871 -9.80963 5.68375 3.86571
0.00064 4e-05 0.00061 16.73658 -34.66424 -2.1004 55.79474 1.92952 3.41389 -6.53518 -6.64946 -0.29591 134.70199 -72.41103 -89.80468 12.69273 106.60281 15.77489 0.51476 120.63451 75.18751 90.00476 8.6077 -101.03883 13.08169 0.0427 50.8298 -1.1137 -9.08887 -19.16499 -7.76694 -4.81986 -3.27355 54.65535 1.19509 1.43175 -24.19225 -9.77746 5.66881 3.85425
0.00076 6e-05 0.00066 16.80452 -34.68722 -2.11497 55.77793 1.90716 3.43592 -6.50128 -6.60025 -0.29617 134.39252 -72.39539 -89.89398 12.68524 106.61913 15.68585 0.43482 120.47298 75.1633 90.00585 8.56664 -101.03196 12.98911 0.06217 50.83891 -1.09793 -9.02729 -19.16047 -7.77859 -4.83386 -3.2814 54.67348 1.28469 1.82269 -24.19077 -9.71751 5.63847 3.83345
0.00088 8e-05 0.00069 16.86087 -34.71597 -2.12952 55.76731 1.88731 3.46843 -6.4758 -6.54384 -0.29646 134.1322 -72.3879 -89.88713 12.67685 106.64216 15.60288 0.36464 120.34392 75.15915 90.00732 8.52447 -101.04618 12.89152 0.04137 50.85473 -1.0795 -8.95789 -19.15456 -7.79191 -4.84986 -3.28966 54.69394 1.39128 2.28395 -24.18748 -9.64813 5.60279 3.80942
0.001 0.0001 0.00072 16.92204 -34.74235 -2.14368 55.75402 1.86648 3.49594 -6.44756 -6.49127 -0.29673 133.85808 -72.37607 -89.92499 12.6684 106.66064 15.51644 0.28963 120.19998 75.14721 90.00856 8.48496 -101.04768 12.79183 0.04317 50.86795 -1.06222 -8.89025 -19.14931 -7.80446 -4.86482 -3.29774 54.71371 1.48885 2.7086 -24.18504 -9.58395 5.56992 3.78709
0.00112 0.00012 0.00077 16.98508 -34.76764 -2.15955 55.74006 1.84496 3.52463 -6.41477 -6.43621 -0.29703 133.54777 -72.36699 -89.95886 12.66203 106.68625 15.43385 0.21666 120.05635 75.12968 90.01002 8.43622 -101.06558 12.71171 0.02663 50.87932 -1.04507 -8.82972 -19.14393 -7.81709 -4.88031 -3.30582 54.732 1.5919 3.15281 -24.18247 -9.5159 5.53542 3.76377
0.00124 0.00014 0.00079 17.04146 -34.79659 -2.17182 55.72906 1.82548 3.55316 -6.39355 -6.38476 -0.29727 133.32478 -72.35408 -89.97763 12.65099 106.6976 15.34366 0.14131 119.92011 75.12859 90.01112 8.40661 -101.0504 12.58827 0.03889 50.89607 -1.02714 -8.75307 -19.13849 -7.82993 -4.89519 -3.31397 54.75384 1.68759 3.57323 -24.17974 -9.45363 5.50303 3.74174
0.00134 0.00019 0.00074 17.08246 -34.83427 -2.17442 55.72395 1.81105 3.58011 -6.40135 -6.34396 -0.29738 133.32829 -72.32878 -89.98387 12.62825 106.6738 15.23963 0.06124 119.79313 75.16741 90.01112 8.4285 -100.97355 12.35827 0.13976 50.92657 -1.00666 -8.62925 -19.13347 -7.84305 -4.90783 -3.3223 54.78548 1.7585 3.90746 -24.17701 -9.41003 5.47797 3.7243
0.00144 0.00024 0.00066 17.11709 -34.87543 -2.17336 55.72179 1.79858 3.60626 -6.42067 -6.30725 -0.29741 133.41831 -72.29933 -89.97723 12.60069 106.63248 15.12614 -0.02202 119.67291 75.22215 90.01076 8.46994 -100.85708 12.08273 0.27144 50.96213 -0.98566 -8.49028 -19.12841 -7.85631 -4.91979 -3.33066 54.8205 1.82138 4.21548 -24.17418 -9.37252 5.45519 3.70825
0.00154 0.00029 0.00059 17.15461 -34.91501 -2.1738 55.71878 1.78522 3.63178 -6.43527 -6.26943 -0.29745 133.47065 -72.27161 -89.97282 12.57467 106.59768 15.01132 -0.10704 119.55185 75.27 90.01058 8.50354 -100.73473 11.82016 0.38918 50.99502 -0.9656 -8.36129 -19.12322 -7.86946 -4.93211 -3.33893 54.85362 1.88822 4.53814 -24.17139 -9.3319 5.4312 3.69139
0.00163 0.00034 0.00053 17.19195 -34.9548 -2.17492 55.71382 1.77197 3.66178 -6.44793 -6.22827 -0.29761 133.51848 -72.24471 -89.9803 12.55125 106.57676 14.92046 -0.17959 119.4231 75.31722 90.01033 8.53285 -100.71021 11.58969 0.50412 51.02973 -0.94252 -8.21914 -19.11858 -7.88289 -4.9443 -3.34751 54.88838 1.95464 4.85343 -24.16856 -9.29227 5.40766 3.67505
0.00175 0.0004 0.00044 17.22804 -34.99488 -2.17377 55.71363 1.75891 3.68225 -6.4673 -6.19501 -0.2975 133.59474 -72.21519 -89.96126 12.52143 106.51317 14.7774 -0.27724 119.31081 75.36912 90.01014 8.57552 -100.47696 11.28207 0.63414 51.06172 -0.92556 -8.10068 -19.11283 -7.89571 -4.95655 -3.35545 54.92045 2.01942 5.1748 -24.16581 -9.25231 5.38391 3.65812
0.00195 0.00046 0.00029 17.26449 -35.03525 -2.16705 55.72522 1.74589 3.67536 -6.50215 -6.18357 -0.29659 133.73464 -72.17784 -89.87188 12.47371 106.42033 14.49197 -0.45976 119.24839 75.43102 90.01019 8.65237 -99.63589 10.76815 0.78642 51.08534 -0.92633 -8.05319 -19.10393 -7.90725 -4.96952 -3.36177 54.94471 2.085 5.53731 -24.16332 -9.20849 5.35807 3.63833
0.00218 0.00052 0.00011 17.29955 -35.07569 -2.15821 55.74158 1.73295 3.65902 -6.54334 -6.17973 -0.29542 133.89817 -72.13832 -89.75668 12.41987 106.27151 14.15422 -0.66527 119.20085 75.49678 90.01028 8.74154 -98.59341 10.17873 0.95527 51.10592 -0.93315 -8.02975 -19.09397 -7.9181 -4.9825 -3.36744 54.96603 2.14851 5.90321 -24.16095 -9.16447 5.33216 3.6181
0.0024 0.00059 -6e-05 17.33378 -35.11586 -2.15045 55.75616 1.72001 3.64784 -6.58173 -6.17185 -0.29439 134.04722 -72.10066 -89.65408 12.36987 106.09033 13.84101 -0.84851 119.14259 75.56004 90.01044 8.82376 -97.6704 9.62715 1.12443 51.12762 -0.93674 -7.99412 -19.08454 -7.92899 -4.99522 -3.37333 54.98839 2.21064 6.25538 -24.15854 -9.12154 5.3069 3.59868
0.00261 0.00065 -0.00022 17.37388 -35.15723 -2.14204 55.76925 1.70712 3.63325 -6.62018 -6.1668 -0.29324 134.21744 -72.05882 -89.54774 12.31565 106.14386 13.52508 -1.07832 119.10203 75.62706 90.01041 8.91259 -96.62931 9.06026 1.2613 51.15066 -0.94236 -7.96328 -19.0748 -7.94102 -5.009 -3.37953 55.01215 2.28221 6.65791 -24.15601 -9.07454 5.27904 3.57671
